<svg viewBox="0 0 70 70" xmlns="http://www.w3.org/2000/svg"><path class="octcol" fill="#e5e5e5" d="M35.04 0h.56c5.18 2.34 10.36 4.7 15.69 6.71 2.73 1.17 5.72 1.97 8.09 3.83 1.59 1.99 2.34 4.48 3.32 6.79 2.28 5.97 4.93 11.79 7.3 17.72v.51c-2.31 5.21-4.68 10.41-6.71 15.74-1.19 2.74-1.99 5.74-3.87 8.11-2.17 1.71-4.88 2.49-7.39 3.55-5.75 2.19-11.34 4.79-17.07 7.04h-.53c-7.02-3.3-14.27-6.07-21.42-9.07-3.27-1.08-4.19-4.66-5.41-7.49-2.37-6.23-5.12-12.3-7.6-18.48v-.56c2.69-5.88 5.26-11.81 7.56-17.85 1.2-2.83 2.16-6.39 5.44-7.45 7.35-3.02 14.71-6.03 22.04-9.1z"/><path class="octbg" fill="#fff" d="M34.42 2.55c1.66-.27 3.22.72 4.74 1.22 5.61 2.49 11.35 4.69 16.98 7.11 2.59.82 3.19 3.73 4.21 5.9 2.1 5.47 4.55 10.8 6.68 16.26 1.35 2.87-.85 5.7-1.74 8.36-2.61 5.46-4.25 11.39-7.28 16.62-6.51 3.45-13.62 5.69-20.33 8.76-3.3 1.86-6.65-.68-9.73-1.78-5.24-2.49-10.96-4.01-15.95-6.99-2.18-3.44-3.25-7.45-4.92-11.14-1.5-3.97-3.68-7.72-4.62-11.87 2.03-7.02 5.52-13.57 8.09-20.42.95-3.51 4.79-4.23 7.68-5.51 5.46-2 10.65-4.74 16.19-6.52z"/></svg>